<svg width="33" height="33" viewBox="0 0 33 33" fill="none" xmlns="http://www.w3.org/2000/svg">
<path d="M29.8412 9.05714C29.7059 8.73134 29.447 8.47244 29.1212 8.33714C28.9609 8.26881 28.7887 8.23258 28.6145 8.23047H21.9478C21.5942 8.23047 21.2551 8.37094 21.005 8.62099C20.755 8.87104 20.6145 9.21018 20.6145 9.5638C20.6145 9.91742 20.755 10.2566 21.005 10.5066C21.2551 10.7567 21.5942 10.8971 21.9478 10.8971H25.4012L17.9478 18.3505L13.5612 13.9505C13.4372 13.8255 13.2897 13.7263 13.1273 13.6586C12.9648 13.5909 12.7905 13.5561 12.6145 13.5561C12.4385 13.5561 12.2642 13.5909 12.1017 13.6586C11.9393 13.7263 11.7918 13.8255 11.6678 13.9505L3.66784 21.9505C3.54286 22.0744 3.44367 22.2219 3.37598 22.3844C3.30829 22.5468 3.27344 22.7211 3.27344 22.8971C3.27344 23.0732 3.30829 23.2474 3.37598 23.4099C3.44367 23.5724 3.54286 23.7198 3.66784 23.8438C3.79179 23.9688 3.93925 24.068 4.10173 24.1357C4.26421 24.2033 4.43849 24.2382 4.6145 24.2382C4.79052 24.2382 4.96479 24.2033 5.12727 24.1357C5.28975 24.068 5.43722 23.9688 5.56117 23.8438L12.6145 16.7771L17.0012 21.1771C17.1251 21.3021 17.2726 21.4013 17.4351 21.469C17.5975 21.5367 17.7718 21.5715 17.9478 21.5715C18.1239 21.5715 18.2981 21.5367 18.4606 21.469C18.6231 21.4013 18.7706 21.3021 18.8945 21.1771L27.2812 12.7771V16.2305C27.2812 16.5841 27.4216 16.9232 27.6717 17.1733C27.9217 17.4233 28.2609 17.5638 28.6145 17.5638C28.9681 17.5638 29.3073 17.4233 29.5573 17.1733C29.8074 16.9232 29.9478 16.5841 29.9478 16.2305V9.5638C29.9457 9.38957 29.9095 9.21743 29.8412 9.05714V9.05714Z" fill="#8B39CB"/>
</svg>
