<svg width="33" height="33" viewBox="0 0 33 33" fill="none" xmlns="http://www.w3.org/2000/svg">
<path d="M16.1484 2.16992C8.41719 2.16992 2.14844 8.43867 2.14844 16.1699C2.14844 23.9012 8.41719 30.1699 16.1484 30.1699C23.8797 30.1699 30.1484 23.9012 30.1484 16.1699C30.1484 8.43867 23.8797 2.16992 16.1484 2.16992ZM16.1484 27.7949C9.72969 27.7949 4.52344 22.5887 4.52344 16.1699C4.52344 9.75117 9.72969 4.54492 16.1484 4.54492C22.5672 4.54492 27.7734 9.75117 27.7734 16.1699C27.7734 22.5887 22.5672 27.7949 16.1484 27.7949ZM17.6391 15.4449L16.8453 15.2605V11.0637C18.0328 11.2262 18.7672 11.9699 18.8922 12.8824C18.9078 13.0074 19.0141 13.098 19.1391 13.098H20.5422C20.6891 13.098 20.8047 12.9699 20.7922 12.823C20.6016 10.8762 18.9984 9.62617 16.8578 9.41055V8.38867C16.8578 8.25117 16.7453 8.13867 16.6078 8.13867H15.7297C15.5922 8.13867 15.4797 8.25117 15.4797 8.38867V9.41992C13.2672 9.63555 11.5359 10.8574 11.5359 13.1387C11.5359 15.2512 13.0922 16.2699 14.7266 16.6605L15.4984 16.8574V21.3168C14.1172 21.1324 13.3422 20.3949 13.1828 19.4012C13.1641 19.2824 13.0578 19.1949 12.9359 19.1949H11.4922C11.3453 19.1949 11.2297 19.3199 11.2422 19.4668C11.3828 21.1855 12.6859 22.7668 15.4672 22.9699V23.9512C15.4672 24.0887 15.5797 24.2012 15.7172 24.2012H16.6047C16.7422 24.2012 16.8547 24.0887 16.8547 23.948L16.8484 22.9574C19.2953 22.7418 21.0453 21.4324 21.0453 19.0824C21.0422 16.9137 19.6641 15.9449 17.6391 15.4449V15.4449ZM15.4953 14.9387C15.3203 14.8887 15.1734 14.8418 15.0266 14.7824C13.9703 14.4012 13.4797 13.7855 13.4797 12.9918C13.4797 11.8574 14.3391 11.2105 15.4953 11.0637V14.9387ZM16.8453 21.3262V17.148C16.9422 17.1762 17.0297 17.198 17.1203 17.2168C18.5984 17.6668 19.0953 18.2918 19.0953 19.2512C19.0953 20.473 18.1766 21.2074 16.8453 21.3262Z" fill="#14ED44"/>
</svg>
