<svg width="33" height="33" viewBox="0 0 33 33" fill="none" xmlns="http://www.w3.org/2000/svg">
<path d="M9.67969 28.1123H23.013" stroke="#3D44DE" stroke-width="1.36637" stroke-linecap="round" stroke-linejoin="round"/>
<path d="M3.01367 21.979V4.9123C3.01367 4.70013 3.09796 4.49665 3.24799 4.34662C3.39802 4.19659 3.6015 4.1123 3.81367 4.1123H28.8803C29.0925 4.1123 29.296 4.19659 29.446 4.34662C29.5961 4.49665 29.6803 4.70013 29.6803 4.9123V21.979C29.6803 22.1911 29.5961 22.3946 29.446 22.5447C29.296 22.6947 29.0925 22.779 28.8803 22.779H3.81367C3.6015 22.779 3.39802 22.6947 3.24799 22.5447C3.09796 22.3946 3.01367 22.1911 3.01367 21.979V21.979Z" stroke="#3D44DE" stroke-width="1.36637"/>
</svg>
