<svg width="33" height="33" viewBox="0 0 33 33" fill="none" xmlns="http://www.w3.org/2000/svg">
<path d="M15.0609 5.71915C13.1376 5.93724 11.3133 6.68811 9.79374 7.88715L11.1089 9.20395C11.3209 9.43143 11.4363 9.73231 11.4308 10.0432C11.4253 10.3541 11.2994 10.6507 11.0795 10.8705C10.8597 11.0904 10.5631 11.2163 10.2522 11.2218C9.94129 11.2273 9.64042 11.1119 9.41294 10.9L8.09134 9.57995C6.9681 10.9888 6.23728 12.6696 5.97294 14.452H8.66094C8.9792 14.452 9.28442 14.5784 9.50947 14.8034C9.73451 15.0285 9.86094 15.3337 9.86094 15.652C9.86094 15.9702 9.73451 16.2754 9.50947 16.5005C9.28442 16.7255 8.9792 16.852 8.66094 16.852H5.90094C6.15005 19.4198 7.32366 21.8097 9.20334 23.5768C9.43005 23.7957 9.5615 24.0951 9.56928 24.4102C9.57707 24.7253 9.46056 25.0308 9.24494 25.2608C9.02932 25.4907 8.7319 25.6265 8.41695 25.6389C8.10199 25.6514 7.7948 25.5394 7.56174 25.3272C5.09774 23.0184 3.46094 19.6136 3.46094 15.9608C3.46094 8.93355 9.20014 3.25195 16.2609 3.25195C23.3217 3.25195 29.0609 8.93195 29.0609 15.9608C29.0578 17.7145 28.6979 19.4492 28.003 21.0594C27.3082 22.6697 26.2931 24.1217 25.0193 25.3272C24.7863 25.5394 24.4791 25.6514 24.1641 25.6389C23.8492 25.6265 23.5518 25.4907 23.3361 25.2608C23.1205 25.0308 23.004 24.7253 23.0118 24.4102C23.0196 24.0951 23.151 23.7957 23.3777 23.5768C25.2444 21.8067 26.3986 19.4146 26.6225 16.852H23.8609C23.5427 16.852 23.2375 16.7255 23.0124 16.5005C22.7874 16.2754 22.6609 15.9702 22.6609 15.652C22.6609 15.3337 22.7874 15.0285 23.0124 14.8034C23.2375 14.5784 23.5427 14.452 23.8609 14.452H26.5489C25.8705 9.86635 22.1441 6.25195 17.4609 5.71915V7.65195C17.4609 7.97021 17.3345 8.27544 17.1095 8.50048C16.8844 8.72553 16.5792 8.85195 16.2609 8.85195C15.9427 8.85195 15.6375 8.72553 15.4124 8.50048C15.1874 8.27544 15.0609 7.97021 15.0609 7.65195V5.71915ZM21.7793 9.34315C21.9247 9.22768 22.1058 9.16637 22.2914 9.16974C22.477 9.17312 22.6557 9.24095 22.7968 9.36163C22.9379 9.48231 23.0327 9.64831 23.0648 9.83118C23.0969 10.0141 23.0645 10.2024 22.9729 10.364L22.7969 10.6776C22.1535 11.8137 21.506 12.9476 20.8545 14.0792C20.3337 14.9847 19.8057 15.886 19.2705 16.7832C19.0385 17.172 18.8273 17.5176 18.6561 17.788C18.4961 18.0392 18.3393 18.2776 18.2241 18.412C17.8108 18.8961 17.2221 19.1963 16.5875 19.2464C15.9529 19.2965 15.3243 19.0925 14.8401 18.6792C14.356 18.2658 14.0558 17.6771 14.0057 17.0425C13.9556 16.4079 14.1596 15.7793 14.5729 15.2952C14.6881 15.1608 14.8977 14.9672 15.1217 14.7704C15.3617 14.5576 15.6705 14.2968 16.0177 14.004C16.7153 13.4216 17.5889 12.708 18.4401 12.02C19.4554 11.1987 20.4741 10.3816 21.4961 9.56875L21.7793 9.34475V9.34315Z" fill="#CB4A39"/>
</svg>
