<svg width="33" height="33" viewBox="0 0 33 33" fill="none" xmlns="http://www.w3.org/2000/svg">
<path d="M28.2591 16.5834C28.2591 9.26337 22.5791 4.29004 16.2591 4.29004C10.0058 4.29004 4.25911 9.15671 4.25911 16.6634C3.45911 17.1167 2.92578 17.97 2.92578 18.9567V21.6234C2.92578 23.09 4.12578 24.29 5.59245 24.29H6.92578V16.1567C6.92578 10.9967 11.0991 6.82337 16.2591 6.82337C21.4191 6.82337 25.5924 10.9967 25.5924 16.1567V25.6234H14.9258V28.29H25.5924C27.0591 28.29 28.2591 27.09 28.2591 25.6234V23.9967C29.0458 23.5834 29.5924 22.77 29.5924 21.81V18.7434C29.5924 17.81 29.0458 16.9967 28.2591 16.5834V16.5834Z" fill="#DCED14"/>
<path d="M12.2591 18.9567C12.9955 18.9567 13.5924 18.3598 13.5924 17.6234C13.5924 16.887 12.9955 16.29 12.2591 16.29C11.5227 16.29 10.9258 16.887 10.9258 17.6234C10.9258 18.3598 11.5227 18.9567 12.2591 18.9567Z" fill="#DCED14"/>
<path d="M20.2591 18.9567C20.9955 18.9567 21.5924 18.3598 21.5924 17.6234C21.5924 16.887 20.9955 16.29 20.2591 16.29C19.5227 16.29 18.9258 16.887 18.9258 17.6234C18.9258 18.3598 19.5227 18.9567 20.2591 18.9567Z" fill="#DCED14"/>
<path d="M24.2584 14.9967C23.9405 13.1222 22.9696 11.4207 21.5177 10.1932C20.0657 8.96577 18.2263 8.2916 16.3251 8.29004C12.2851 8.29004 7.93842 11.6367 8.28509 16.89C9.92927 16.2172 11.3814 15.148 12.5121 13.7777C13.6427 12.4075 14.4167 10.7787 14.7651 9.03671C16.5118 12.5434 20.0984 14.9567 24.2584 14.9967Z" fill="#DCED14"/>
</svg>
