<svg width="33" height="33" viewBox="0 0 33 33" fill="none" xmlns="http://www.w3.org/2000/svg">
<g clip-path="url(#clip0_1846_1181)">
<path d="M6.21575 22.6172V28.1011L11.8824 26.7463L16.1491 30.8753L20.4158 26.7463L26.0824 28.1011V22.6172L31.8158 21.1979L28.9491 15.714L31.8158 10.2302L26.0824 8.8108V3.32693L20.4158 4.68177L16.1491 0.552734L11.8824 4.68177L6.21575 3.32693V8.8108L0.482422 10.2302L3.34909 15.714L0.482422 21.1979L6.21575 22.6172ZM5.88242 14.4882L4.61575 11.9721L6.88242 11.456C7.54909 11.3269 8.07131 11.0151 8.44909 10.5205C8.82687 10.0259 9.01575 9.45596 9.01575 8.8108V6.87531L11.1491 7.45596H11.8824C12.638 7.45596 13.3046 7.17639 13.8824 6.61725L16.1491 4.4237L18.4158 6.61725C18.9935 7.17639 19.6602 7.45596 20.4158 7.45596C20.6824 7.45596 20.9269 7.41295 21.1491 7.32693L23.2824 6.87531V8.8108C23.2824 9.45596 23.4713 10.0259 23.8491 10.5205C24.2269 11.0151 24.7491 11.3269 25.4158 11.456L27.6824 11.9721L26.4158 14.4882C25.9713 15.3054 25.9713 16.1226 26.4158 16.9398L27.6824 19.456L25.4158 19.9721C24.7491 20.1011 24.2269 20.4129 23.8491 20.9076C23.4713 21.4022 23.2824 21.9721 23.2824 22.6172V24.5527L21.1491 23.9721H20.4158C19.6602 23.9721 18.9935 24.2517 18.4158 24.8108L16.1491 27.0043L13.8824 24.8108C13.3046 24.2517 12.638 23.9721 11.8824 23.9721C11.6158 23.9721 11.3713 24.0151 11.1491 24.1011L9.01575 24.5527V22.6172C9.01575 21.9721 8.82687 21.4022 8.44909 20.9076C8.07131 20.4129 7.54909 20.1011 6.88242 19.9721L4.61575 19.456L5.88242 16.9398C6.32687 16.1226 6.32687 15.3054 5.88242 14.4882ZM14.7491 20.4237L21.4158 13.9076C22.038 13.3054 22.038 12.6603 21.4158 11.9721C20.7491 11.4129 20.0824 11.4129 19.4158 11.9721L14.7491 16.5527L12.8824 14.7463C12.2158 14.1871 11.5491 14.1871 10.8824 14.7463C10.3046 15.3914 10.3046 16.0366 10.8824 16.6818L14.7491 20.4237Z" fill="#14ACED"/>
</g>
<defs>
<clipPath id="clip0_1846_1181">
<rect width="32" height="32" fill="white" transform="translate(0.148438 0.229492)"/>
</clipPath>
</defs>
</svg>
